<svg width="41" height="57" viewBox="0 0 41 57" fill="none" xmlns="http://www.w3.org/2000/svg">
<path d="M14.6632 0H20.5663V3.42622H14.6632V0Z" fill="white"/>
<path d="M10.4963 7.83728V9.91747H24.7434V7.83728V4.59375H10.4963V7.83728Z" fill="white"/>
<path d="M34.0557 51.9474C34.2314 51.9474 34.3745 51.8043 34.3745 51.6287V13.7808V8.73746C34.3745 8.56178 34.2314 8.4187 34.0557 8.4187H25.9072V10.4988C25.9072 10.8211 25.6466 11.0805 25.3255 11.0805H9.91511C9.59401 11.0805 9.33341 10.8211 9.33341 10.4988V8.4187H1.17446C0.998787 8.4187 0.855705 8.56178 0.855705 8.73746V51.6287C0.855705 51.8043 0.998787 51.9474 1.17446 51.9474H6.94376H34.0557ZM14.0824 17.3152H31.0844C31.4066 17.3152 31.6661 17.5758 31.6661 17.8969C31.6661 18.218 31.4066 18.4786 31.0844 18.4786H14.0824C13.7602 18.4786 13.5007 18.218 13.5007 17.8969C13.5007 17.5758 13.7602 17.3152 14.0824 17.3152ZM14.0824 21.0463H21.4049C21.726 21.0463 21.9866 21.3057 21.9866 21.628C21.9866 21.9491 21.726 22.2097 21.4049 22.2097H14.0824C13.7602 22.2097 13.5007 21.9491 13.5007 21.628C13.5007 21.3057 13.7602 21.0463 14.0824 21.0463ZM14.0824 29.2168H31.0844C31.4066 29.2168 31.6661 29.4763 31.6661 29.7985C31.6661 30.1196 31.4066 30.3802 31.0844 30.3802H14.0824C13.7602 30.3802 13.5007 30.1196 13.5007 29.7985C13.5007 29.4763 13.7602 29.2168 14.0824 29.2168ZM14.0824 32.9467H21.4049C21.726 32.9467 21.9866 33.2073 21.9866 33.5285C21.9866 33.8507 21.726 34.1102 21.4049 34.1102H14.0824C13.7602 34.1102 13.5007 33.8507 13.5007 33.5285C13.5007 33.2073 13.7602 32.9467 14.0824 32.9467ZM14.0824 41.1185H31.0844C31.4066 41.1185 31.6661 41.3779 31.6661 41.7002C31.6661 42.0213 31.4066 42.2819 31.0844 42.2819H14.0824C13.7602 42.2819 13.5007 42.0213 13.5007 41.7002C13.5007 41.3779 13.7602 41.1185 14.0824 41.1185ZM14.0824 44.8483H21.4049C21.726 44.8483 21.9866 45.1089 21.9866 45.43C21.9866 45.7523 21.726 46.0117 21.4049 46.0117H14.0824C13.7602 46.0117 13.5007 45.7523 13.5007 45.43C13.5007 45.1089 13.7602 44.8483 14.0824 44.8483ZM3.56411 16.7905C3.56411 16.4694 3.82471 16.2088 4.14581 16.2088H10.2734C10.5945 16.2088 10.8551 16.4694 10.8551 16.7905V22.9181C10.8551 23.2392 10.5945 23.4998 10.2734 23.4998H4.14581C3.82471 23.4998 3.56411 23.2392 3.56411 22.9181V16.7905ZM3.56411 28.6921C3.56411 28.371 3.82471 28.1104 4.14581 28.1104H10.2734C10.5945 28.1104 10.8551 28.371 10.8551 28.6921V34.8198C10.8551 35.1409 10.5945 35.4015 10.2734 35.4015H4.14581C3.82471 35.4015 3.56411 35.1409 3.56411 34.8198V28.6921ZM3.56411 46.7214V40.5938C3.56411 40.2727 3.82471 40.0121 4.14581 40.0121H10.2734C10.5945 40.0121 10.8551 40.2727 10.8551 40.5938V46.7214C10.8551 47.0425 10.5945 47.3031 10.2734 47.3031H4.14581C3.82471 47.3031 3.56411 47.0425 3.56411 46.7214Z" fill="white"/>
<path d="M39.8255 13.4622H35.8572C35.6815 13.4622 35.5384 13.6052 35.5384 13.7809V51.6287C35.5384 52.4455 34.874 53.111 34.0562 53.111H6.94306C6.76738 53.111 6.6243 53.2541 6.6243 53.4297V56.6814C6.6243 56.8571 6.76738 57.0002 6.94306 57.0002H39.8255C40.0012 57.0002 40.1443 56.8571 40.1443 56.6814V13.7809C40.1443 13.6052 40.0012 13.4622 39.8255 13.4622Z" fill="white"/>
</svg>
