<svg width="47" height="60" viewBox="0 0 47 60" fill="none" xmlns="http://www.w3.org/2000/svg">
<path d="M8.55809 25.7789C7.98832 29.438 6.45934 39.8112 6.45934 45.7417C8.33534 46.6076 11.5106 47.4735 14.7189 47.4735C17.9271 47.4735 21.1019 46.6076 22.9784 45.7417C22.9784 42.6633 22.577 38.0924 22.1135 33.839C21.3563 34.0839 20.4609 34.2109 19.4262 34.2109C18.3314 34.2109 17.3664 34.07 16.8884 33.986C16.5392 33.9245 15.7437 33.5938 15.8954 31.8544C15.979 30.8982 16.4182 29.2798 17.535 29.2798C17.5943 29.2798 17.6543 29.285 17.7132 29.2954C17.724 29.2973 17.735 29.2993 17.7459 29.301L17.6933 29.0228L17.6922 28.9691C17.6855 28.6661 17.7976 28.3781 18.008 28.1584C18.2184 27.9389 18.5007 27.8144 18.8038 27.8077L18.8283 27.8075C19.4195 27.8075 19.9145 28.271 19.9611 28.8535L20.0695 29.4183C20.1531 29.4116 20.2287 29.4036 20.2966 29.3949C20.4722 27.8973 20.7359 26.5589 21.0824 25.3743C20.9238 24.1834 20.8045 23.3322 20.7547 22.9803H22.0036C22.5874 21.813 23.297 20.886 24.1344 20.2128C24.508 19.9123 24.876 19.6874 25.2265 19.5166H17.4642C17.4504 21.0229 16.6672 23.1322 15.9402 24.7703L15.5906 22.1942C15.3103 22.2994 15.0152 22.3544 14.7202 22.3544H14.7189H14.7184C14.4229 22.3546 14.1276 22.2996 13.8467 22.1944L13.4973 24.7699C12.774 23.14 11.9956 21.0439 11.9741 19.5395H10.9539C10.8636 19.5333 10.7344 19.5302 10.5722 19.5395H10.5374C10.3912 19.5395 10.2501 19.5603 10.115 19.5954C9.54957 19.698 8.79882 19.9584 8.0143 20.5893C6.06037 22.1602 4.83272 25.2574 4.36426 29.7974C4.08652 29.9015 3.58342 29.9567 2.99633 29.9606L3.00261 29.9212L2.7883 28.804C2.78245 28.5362 2.55862 28.3216 2.29083 28.3275C2.02305 28.3333 1.80852 28.5572 1.81436 28.825L2.02218 29.9231C1.70288 29.8974 1.38097 29.8582 1.07422 29.8052C0.131677 29.6402 -0.467968 33.0506 0.473929 33.2164C0.919442 33.2948 1.84878 33.4316 2.89914 33.4316C4.17138 33.4316 5.62092 33.2312 6.60351 32.4832C6.74661 32.3743 6.87433 32.2551 6.99296 32.1297C7.3404 29.4843 7.68504 27.1791 7.90195 25.7787L8.55809 25.7789ZM12.4225 40.8443L8.56221 40.3124L8.68062 39.4549L12.5409 39.9864L12.4225 40.8443ZM20.8753 40.3124L17.015 40.8443L16.8966 39.9864L20.7569 39.4549L20.8753 40.3124Z" fill="white"/>
<path d="M8.8635 57.2332C8.8635 58.7118 10.0621 59.9098 11.5398 59.9098C13.0179 59.9098 14.2166 58.7118 14.2166 57.2332V48.1143C12.2869 48.0626 10.4195 47.7214 8.86328 47.2874L8.8635 57.2332Z" fill="white"/>
<path d="M15.2209 57.2332C15.2209 58.7118 16.4196 59.9097 17.8972 59.9097C19.3754 59.9097 20.574 58.7118 20.574 57.2332V47.2871C19.0177 47.7214 17.1504 48.0625 15.2207 48.1143L15.2209 57.2332Z" fill="white"/>
<path d="M14.7184 18.3065C17.4088 18.3065 19.5892 16.1259 19.5892 13.4357C19.5892 10.7453 17.4088 8.56494 14.7184 8.56494C12.0285 8.56494 9.84766 10.7453 9.84766 13.4357C9.84766 16.1259 12.0285 18.3065 14.7184 18.3065ZM17.7567 14.7361C17.127 15.7559 16.0024 16.4393 14.7184 16.4393C13.4345 16.4393 12.3099 15.7559 11.6801 14.7361H17.7567Z" fill="white"/>
<path d="M15.8897 21.2807L15.9522 21.1819L15.5409 19.5583H14.7185H13.8957L13.4844 21.1819L13.5476 21.2815C13.8864 21.5636 14.3009 21.7049 14.7183 21.7054C15.1355 21.7049 15.5507 21.5634 15.8897 21.2807Z" fill="white"/>
<path d="M36.3743 13.5675C36.3743 10.8774 34.194 8.69678 31.5036 8.69678C28.8136 8.69678 26.6328 10.8774 26.6328 13.5675C26.6328 16.2577 28.8136 18.4383 31.5036 18.4383C34.1938 18.4383 36.3743 16.2577 36.3743 13.5675ZM28.4653 15.1896H34.5418C33.9121 16.2094 32.7875 16.8929 31.5036 16.8929C30.2196 16.8929 29.0948 16.2097 28.4653 15.1896Z" fill="white"/>
<path d="M45.4067 29.9354C45.0999 29.9884 44.778 30.0276 44.4587 30.0533L44.6663 28.9551C44.6722 28.6874 44.4579 28.4635 44.1899 28.4577C43.9221 28.4518 43.6982 28.6664 43.6924 28.9341L43.4781 30.0514L43.4844 30.0908C42.8973 30.0871 42.394 30.0317 42.1164 29.9276C41.648 25.3878 40.4203 22.2906 38.4664 20.7194C37.1197 19.6364 35.8687 19.6409 35.4946 19.6719H27.5135C27.1394 19.6409 25.8886 19.6364 24.5416 20.7194C22.5877 22.2904 21.3601 25.3876 20.8916 29.9276C20.6139 30.0317 20.1108 30.0869 19.5237 30.0908L19.53 30.0514L19.3156 28.9341C19.3098 28.6664 19.086 28.4518 18.8182 28.4577C18.5504 28.4635 18.3359 28.6874 18.3417 28.9551L18.5495 30.0533C18.23 30.0276 17.9083 29.9884 17.6016 29.9354C16.659 29.7704 16.0594 33.1808 17.0013 33.3466C17.4468 33.425 18.3761 33.5618 19.4265 33.5618C20.6987 33.5618 22.1483 33.3613 23.1309 32.6134C23.8236 32.0863 24.2329 31.3587 24.3146 30.5097C24.5787 27.758 25.101 25.9803 25.6491 24.8602V34.4645L23.8026 57.1062C23.6824 58.5798 24.7798 59.8713 26.2527 59.9912C27.7258 60.1111 29.0178 59.0149 29.1379 57.5413L30.7461 37.8236H32.2619L33.8699 57.5413C33.9901 59.0151 35.282 60.1114 36.7551 59.9912C38.2283 59.8711 39.3254 58.5798 39.2052 57.1062L37.3587 34.4645V24.86C37.9068 25.9801 38.4294 27.758 38.6935 30.5097C38.7751 31.3587 39.1845 32.0863 39.8772 32.6134C40.8598 33.3613 42.3093 33.5618 43.5816 33.5618C44.6321 33.5618 45.5615 33.425 46.0068 33.3466C46.9489 33.1808 46.3492 29.7704 45.4067 29.9354Z" fill="white"/>
<path d="M37.3477 0.000244141H37.2698C37.1256 1.73056 36.6089 2.24729 34.8788 2.39125V2.4694C36.6089 2.61335 37.1259 3.13009 37.2698 4.8604H37.3477C37.4919 3.1303 38.0087 2.61335 39.7388 2.4694V2.39125C38.0087 2.24729 37.4919 1.73056 37.3477 0.000244141Z" fill="white"/>
<path d="M38.209 12.8362V12.9033C39.6951 13.0269 40.1391 13.4709 40.2627 14.957H40.3296C40.4534 13.4709 40.8972 13.0269 42.3833 12.9033V12.8362C40.8972 12.7126 40.4532 12.2686 40.3296 10.7825H40.2627C40.1391 12.2686 39.6951 12.7126 38.209 12.8362Z" fill="white"/>
<path d="M42.9355 9.34776H43.0251C43.1905 7.36071 43.7841 6.76712 45.7712 6.60174V6.5119C43.7841 6.34672 43.1905 5.75292 43.0251 3.76587H42.9355C42.7701 5.75292 42.1765 6.34672 40.1895 6.5119V6.60174C42.1765 6.76712 42.7701 7.36071 42.9355 9.34776Z" fill="white"/>
</svg>
