<svg width="54" height="54" viewBox="0 0 54 54" fill="none" xmlns="http://www.w3.org/2000/svg">
<g clip-path="url(#clip0_3_3167)">
<path d="M14.6185 17.935C16.9546 22.7148 22.3369 26.6473 24.75 28.2377V32.4978L15.1633 38.2502H38.9098L29.25 32.4542V28.2377C31.6631 26.6467 37.0454 22.7143 39.3815 17.9344C47.3465 17.0969 49.5 7.45843 49.5 2.25024C49.5 1.65351 49.263 1.08121 48.841 0.659254C48.419 0.237297 47.8467 0.000244141 47.25 0.000244141L6.75 0.000244141C6.15326 0.000244141 5.58097 0.237297 5.15901 0.659254C4.73705 1.08121 4.5 1.65351 4.5 2.25024C4.5 7.45843 6.65353 17.0969 14.6185 17.935ZM40.5 12.9917V4.50024H44.8262C44.485 7.1949 43.4756 11.5228 40.5 12.9917ZM13.5 4.50024V12.9917C10.5241 11.5228 9.51469 7.19378 9.17381 4.50024H13.5Z" fill="white"/>
<path d="M52.875 38.2502C51.9802 38.2493 51.1223 37.8934 50.4896 37.2607C49.8569 36.6279 49.501 35.7701 49.5 34.8752C49.5 34.5769 49.3815 34.2907 49.1705 34.0797C48.9595 33.8688 48.6734 33.7502 48.375 33.7502C48.0766 33.7502 47.7905 33.8688 47.5795 34.0797C47.3685 34.2907 47.25 34.5769 47.25 34.8752C47.249 35.7701 46.8931 36.6279 46.2604 37.2607C45.6277 37.8934 44.7698 38.2493 43.875 38.2502C43.5766 38.2502 43.2905 38.3688 43.0795 38.5797C42.8685 38.7907 42.75 39.0769 42.75 39.3752C42.75 39.6736 42.8685 39.9598 43.0795 40.1707C43.2905 40.3817 43.5766 40.5002 43.875 40.5002C44.7698 40.5012 45.6277 40.8571 46.2604 41.4898C46.8931 42.1226 47.249 42.9804 47.25 43.8752C47.25 44.1736 47.3685 44.4598 47.5795 44.6707C47.7905 44.8817 48.0766 45.0002 48.375 45.0002C48.6734 45.0002 48.9595 44.8817 49.1705 44.6707C49.3815 44.4598 49.5 44.1736 49.5 43.8752C49.501 42.9804 49.8569 42.1226 50.4896 41.4898C51.1223 40.8571 51.9802 40.5012 52.875 40.5002C53.1734 40.5002 53.4595 40.3817 53.6705 40.1707C53.8815 39.9598 54 39.6736 54 39.3752C54 39.0769 53.8815 38.7907 53.6705 38.5797C53.4595 38.3688 53.1734 38.2502 52.875 38.2502Z" fill="white"/>
<path d="M48.375 17.7434C48.0766 17.7434 47.7905 17.8619 47.5795 18.0729C47.3685 18.2839 47.25 18.57 47.25 18.8684C47.249 19.7632 46.8931 20.6211 46.2604 21.2538C45.6277 21.8865 44.7698 22.2424 43.875 22.2434C43.5766 22.2434 43.2905 22.3619 43.0795 22.5729C42.8685 22.7839 42.75 23.07 42.75 23.3684C42.75 23.6668 42.8685 23.9529 43.0795 24.1639C43.2905 24.3749 43.5766 24.4934 43.875 24.4934C44.7698 24.4944 45.6277 24.8503 46.2604 25.483C46.8931 26.1157 47.249 26.9736 47.25 27.8684C47.25 28.1668 47.3685 28.4529 47.5795 28.6639C47.7905 28.8749 48.0766 28.9934 48.375 28.9934C48.6734 28.9934 48.9595 28.8749 49.1705 28.6639C49.3815 28.4529 49.5 28.1668 49.5 27.8684C49.501 26.9736 49.8569 26.1157 50.4896 25.483C51.1223 24.8503 51.9802 24.4944 52.875 24.4934C53.1734 24.4934 53.4595 24.3749 53.6705 24.1639C53.8815 23.9529 54 23.6668 54 23.3684C54 23.07 53.8815 22.7839 53.6705 22.5729C53.4595 22.3619 53.1734 22.2434 52.875 22.2434C51.9802 22.2424 51.1223 21.8865 50.4896 21.2538C49.8569 20.6211 49.501 19.7632 49.5 18.8684C49.5 18.57 49.3815 18.2839 49.1705 18.0729C48.9595 17.8619 48.6734 17.7434 48.375 17.7434Z" fill="white"/>
<path d="M15.75 30.3752C15.75 30.0769 15.6315 29.7907 15.4205 29.5797C15.2095 29.3688 14.9234 29.2502 14.625 29.2502C13.7302 29.2493 12.8723 28.8934 12.2396 28.2607C11.6069 27.6279 11.251 26.7701 11.25 25.8752C11.25 25.5769 11.1315 25.2907 10.9205 25.0797C10.7095 24.8688 10.4234 24.7502 10.125 24.7502C9.82663 24.7502 9.54048 24.8688 9.32951 25.0797C9.11853 25.2907 9 25.5769 9 25.8752C8.99903 26.7701 8.64314 27.6279 8.01042 28.2607C7.37769 28.8934 6.51981 29.2493 5.625 29.2502C5.32663 29.2502 5.04048 29.3688 4.82951 29.5797C4.61853 29.7907 4.5 30.0769 4.5 30.3752C4.5 30.6736 4.61853 30.9598 4.82951 31.1707C5.04048 31.3817 5.32663 31.5002 5.625 31.5002C6.51981 31.5012 7.37769 31.8571 8.01042 32.4898C8.64314 33.1226 8.99903 33.9804 9 34.8752C9 35.1736 9.11853 35.4598 9.32951 35.6707C9.54048 35.8817 9.82663 36.0002 10.125 36.0002C10.4234 36.0002 10.7095 35.8817 10.9205 35.6707C11.1315 35.4598 11.25 35.1736 11.25 34.8752C11.251 33.9804 11.6069 33.1226 12.2396 32.4898C12.8723 31.8571 13.7302 31.5012 14.625 31.5002C14.9234 31.5002 15.2095 31.3817 15.4205 31.1707C15.6315 30.9598 15.75 30.6736 15.75 30.3752Z" fill="white"/>
<path d="M13.5352 51.7502C13.5352 52.347 13.7722 52.9193 14.1942 53.3412C14.6161 53.7632 15.1884 54.0002 15.7852 54.0002H38.2852C38.8819 54.0002 39.4542 53.7632 39.8761 53.3412C40.2981 52.9193 40.5352 52.347 40.5352 51.7502V40.5002H13.5352V51.7502Z" fill="white"/>
</g>
<defs>
<clipPath id="clip0_3_3167">
<rect width="54" height="54" fill="white" transform="translate(0 0.000244141)"/>
</clipPath>
</defs>
</svg>
