<svg width="51" height="51" viewBox="0 0 51 51" fill="none" xmlns="http://www.w3.org/2000/svg">
<g clip-path="url(#clip0_3_3129)">
<path d="M28.9863 9.59008H34.6441L28.9863 3.16113V9.59008Z" fill="white"/>
<path d="M50.9992 48.2474L43.2033 40.462C44.0146 39.0879 44.4822 37.4882 44.4822 35.7808C44.4822 30.6819 40.3283 26.5337 35.2226 26.5337C30.1168 26.5337 25.9629 30.6819 25.9629 35.7808C25.9629 40.8797 30.1168 45.028 35.2226 45.028C37.4888 45.028 39.5663 44.2094 41.1775 42.8547L48.7883 50.4553L50.9992 48.2474Z" fill="white"/>
<path d="M8.28125 8.39136H18.4159V17.0003H8.28125V8.39136Z" fill="white"/>
<path d="M35.2035 23.4114C35.6462 23.4114 36.0705 23.4348 36.5064 23.4817V12.5323H27.4673C26.6039 12.5323 25.9359 11.938 25.9359 11.0758V0.545166H1.08974C0.487878 0.545166 0 1.03304 0 1.63491V48.9338C0 49.5357 0.487878 50.0195 1.08974 50.0195H35.468C36.0674 50.0195 36.5064 49.5332 36.5064 48.9338V48.0803C36.0705 48.1271 35.6462 48.1506 35.2035 48.1506C28.3737 48.1506 22.8172 42.6015 22.8172 35.781C22.8172 28.9606 28.3737 23.4114 35.2035 23.4114ZM20.9231 45.3336H5.33974V42.1734H20.9231V45.3336ZM5.33974 36.9426V33.7823H20.7051V36.9426H5.33974ZM20.9231 28.5516H5.33974V25.3913H20.9231V28.5516ZM21.5769 18.5592C21.5769 19.4214 20.8259 20.1606 19.9625 20.1606H6.73429C5.87089 20.1606 5.1218 19.4214 5.1218 18.5592V6.79005C5.1218 5.92774 5.87089 5.23106 6.73429 5.23106H19.9625C20.8259 5.23106 21.5769 5.92774 21.5769 6.79005V18.5592Z" fill="white"/>
</g>
<defs>
<clipPath id="clip0_3_3129">
<rect width="51" height="51" fill="white" transform="translate(0 0.000244141)"/>
</clipPath>
</defs>
</svg>
