<svg width="43" height="44" viewBox="0 0 43 44" fill="none" xmlns="http://www.w3.org/2000/svg">
<path fill-rule="evenodd" clip-rule="evenodd" d="M18.3535 26.1495H14.4586C14.8144 27.9867 13.405 29.6985 11.5295 29.6985C10.7057 29.6985 9.95973 29.3645 9.41985 28.8246C8.73207 28.1368 8.40808 27.1434 8.60059 26.1495H4.70556V30.0567C6.56149 29.6584 8.31376 31.0747 8.31376 32.9735C8.31376 34.8723 6.56111 36.2886 4.70556 35.8903V39.7975H9.28082V39.7983C9.6481 39.798 9.90786 40.184 9.75261 40.5285C9.18131 41.7963 10.1019 43.2745 11.5295 43.2745C12.7713 43.2745 13.6924 42.125 13.4339 40.9167C13.3723 40.6288 13.2598 40.4964 13.2598 40.3159C13.2598 40.0296 13.4919 39.7975 13.7782 39.7975H18.3534V34.8535H18.3544C18.3541 34.4388 18.825 34.1879 19.1695 34.4303C20.441 35.3252 22.2367 34.4261 22.2367 32.8365C22.2367 31.517 20.9504 30.5849 19.7016 30.9797C19.2227 31.1311 19.1583 31.3381 18.8718 31.3381C18.5854 31.3381 18.3534 31.106 18.3534 30.8197V26.1496L18.3535 26.1495ZM33.0383 26.1495V30.8925C33.0383 31.1788 33.2705 31.4109 33.5567 31.4109C33.8186 31.4109 33.8953 31.2292 34.3336 31.1019C35.5643 30.7442 36.8258 31.6645 36.8258 32.9734C36.8258 34.5268 35.1052 35.4285 33.8341 34.6189C33.4881 34.3985 33.04 34.6516 33.0404 35.0543H33.0383V39.7974H29.1311C29.5294 37.9414 28.1132 36.1891 26.2143 36.1891C24.3155 36.1891 22.8993 37.9422 23.2975 39.7974H19.3902V35.6817C21.3047 36.2869 23.2734 34.8583 23.2734 32.8365C23.2734 30.8146 21.3047 29.3862 19.3902 29.9913V26.1494H24.1721C24.4584 26.1494 24.6905 25.9173 24.6905 25.631C24.6905 25.3527 24.4931 25.2874 24.3507 24.8226C23.9721 23.586 24.8929 22.3025 26.2142 22.3025C27.7911 22.3025 28.6896 24.0715 27.8291 25.3413C27.5952 25.6863 27.8473 26.1475 28.2563 26.1471V26.1494H33.0382L33.0383 26.1495ZM4.70556 25.1126V20.3696C4.70556 20.0833 4.47344 19.8512 4.18718 19.8512C3.92545 19.8512 3.84867 20.0327 3.41027 20.1602C2.17949 20.5178 0.917969 19.5976 0.917969 18.2887C0.917969 16.7351 2.63883 15.8337 3.90969 16.6431C4.25585 16.8635 4.70377 16.6104 4.70339 16.2077H4.70547V11.4647H8.61257C8.21444 13.3206 9.63056 15.0728 11.5294 15.0728C13.4282 15.0728 14.8445 13.3206 14.4462 11.4647H18.3534V15.4906C16.5263 15.1579 14.8409 16.5668 14.8409 18.4256C14.8409 20.2845 16.5263 21.6932 18.3534 21.3606V25.1127H13.7443V25.1149C13.3704 25.1145 13.1108 25.5111 13.2806 25.8579C13.6439 26.5997 13.4937 27.5041 12.9062 28.0916C11.6831 29.3147 9.58264 28.4444 9.58264 26.7149C9.58264 26.4591 9.64612 26.1123 9.75987 25.8968C9.97634 25.4866 9.67121 25.1128 9.31459 25.1128H4.70547L4.70556 25.1126ZM32.8877 0L30.8647 0.0368791C30.5731 0.042161 30.3362 0.290599 30.3416 0.582235L30.3612 1.65974C30.3649 1.89667 30.2043 2.11295 29.9643 2.17001C28.9449 2.41364 27.9736 2.84138 27.1029 3.41871C26.9054 3.54953 26.6368 3.53105 26.459 3.35995L25.6748 2.60558L25.6756 2.60473C25.4635 2.40789 25.1438 2.41091 24.922 2.63256L24.9211 2.63171L23.5237 4.08112C23.3202 4.29211 23.3251 4.63213 23.5366 4.83605L24.3033 5.57524C24.4825 5.73879 24.5268 6.01137 24.3957 6.22623C23.8787 7.07199 23.4378 8.14149 23.2548 9.11826C23.2137 9.3584 23.0064 9.54298 22.754 9.54694L21.6765 9.56656C21.3848 9.57184 21.1479 9.82028 21.1532 10.1119L21.1901 12.1349C21.1954 12.4266 21.4438 12.6635 21.7355 12.6582L22.8131 12.6386C23.05 12.6348 23.2663 12.7954 23.3233 13.0354C23.5669 14.0548 23.9947 15.0263 24.572 15.8969C24.7028 16.0944 24.6844 16.363 24.5133 16.5408L23.7649 17.317C23.5615 17.5281 23.5663 17.8679 23.7778 18.0719L25.2344 19.4764C25.4454 19.6798 25.7854 19.675 25.9894 19.4634L26.7285 18.6967C26.8921 18.5175 27.1648 18.4732 27.3795 18.6042C28.2252 19.1212 29.2947 19.5621 30.2716 19.745C30.5117 19.7861 30.6963 19.9934 30.7003 20.2458L30.7199 21.3234C30.7252 21.6151 30.9736 21.852 31.2652 21.8467L33.2882 21.8098C33.5799 21.8045 33.8169 21.5561 33.8115 21.2645L33.7919 20.187C33.7881 19.95 33.9487 19.7338 34.1888 19.6767C35.2083 19.433 36.1795 19.0053 37.0503 18.4279C37.2478 18.2971 37.5165 18.3156 37.6942 18.4867L38.4703 19.235C38.6813 19.4384 39.0213 19.4336 39.2252 19.2221L40.6296 17.7655C40.833 17.5545 40.8282 17.2146 40.6166 17.0106L39.8499 16.2715C39.6707 16.1079 39.6264 15.8353 39.7575 15.6205C40.2745 14.7746 40.7152 13.7053 40.8983 12.7283C40.9394 12.4882 41.1467 12.3037 41.3991 12.2998L42.4766 12.2801C42.7684 12.2749 43.0052 12.0264 42.9999 11.7347L42.963 9.71181C42.9578 9.42008 42.7092 9.18325 42.4177 9.18853L41.3402 9.20815C41.1032 9.21192 40.887 9.05129 40.8299 8.81125C40.5862 7.79194 40.1584 6.82044 39.5811 5.94978C39.4503 5.75227 39.4688 5.48365 39.6399 5.30586L40.3882 4.5298C40.5916 4.31871 40.5868 3.97878 40.3753 3.77486L38.9448 2.39572C38.9331 2.38591 38.9216 2.37544 38.9106 2.36441L38.9113 2.36356C38.6994 2.16671 38.3795 2.16982 38.1578 2.39148L38.1569 2.39063L37.4246 3.15018C37.261 3.32939 36.9884 3.37372 36.7736 3.24262C35.9279 2.72556 34.8583 2.2848 33.8816 2.10182C33.6414 2.0607 33.4568 1.85338 33.4529 1.60098L33.4333 0.52338C33.428 0.231649 33.1795 -0.00518763 32.8878 9.42679e-05L32.8877 0ZM35.7098 7.15603C36.6741 8.08584 37.2838 9.38292 37.3101 10.8267C37.3627 13.7129 35.0673 16.0998 32.1814 16.1568V16.155L32.1732 16.1571C30.7278 16.1834 29.4082 15.6212 28.4434 14.6909C27.4808 13.7629 26.8717 12.4691 26.8432 11.0286H26.8451L26.8431 11.0204C26.8167 9.57486 27.379 8.25533 28.3092 7.29044C30.3161 5.20899 33.6291 5.15004 35.7098 7.15622V7.15603ZM31.9636 4.65713C35.425 4.59403 38.2797 7.34826 38.3428 10.8104C38.3743 12.5405 37.7018 14.1194 36.589 15.2735C35.4757 16.4281 33.9213 17.1581 32.1895 17.1897L32.1814 17.1917V17.1898C30.4545 17.219 28.8787 16.547 27.7264 15.436C26.5718 14.3227 25.8418 12.7682 25.8102 11.0365L25.8081 11.0284H25.8101C25.7515 7.57028 28.5042 4.72023 31.9635 4.65713H31.9636ZM30.1266 11.8852C30.3569 12.0541 30.4068 12.3778 30.238 12.6081C30.0692 12.8384 29.7455 12.8883 29.5151 12.7195L27.638 11.3405C27.3485 11.1281 27.3643 10.7025 27.647 10.4997L29.5152 9.12741C29.7455 8.95858 30.0693 9.00838 30.2381 9.2388C30.4069 9.46913 30.3571 9.79283 30.1267 9.96176L28.8174 10.9235L30.1267 11.8853L30.1266 11.8852ZM34.638 12.7195C34.4077 12.8883 34.084 12.8385 33.915 12.6081C33.7461 12.3777 33.796 12.0541 34.0264 11.8852L35.3358 10.9234L34.0264 9.96167C33.7961 9.79283 33.7462 9.46913 33.915 9.23871C34.0839 9.00838 34.4076 8.95848 34.638 9.12731L36.5062 10.4996C36.789 10.7024 36.8047 11.128 36.5152 11.3404L34.6381 12.7194L34.638 12.7195ZM31.5721 13.4176C31.4603 13.6804 31.1566 13.8028 30.8938 13.691C30.631 13.5791 30.5086 13.2754 30.6205 13.0126L32.5811 8.42907C32.6929 8.16629 32.9967 8.04386 33.2594 8.15573C33.5222 8.26759 33.6446 8.5713 33.5328 8.83407L31.5721 13.4175V13.4176Z" fill="white"/>
</svg>
