<svg width="48" height="48" viewBox="0 0 48 48" fill="none" xmlns="http://www.w3.org/2000/svg">
<g clip-path="url(#clip0_3_3385)">
<path d="M39.4286 17.1429C42.2689 17.1429 44.5714 14.8404 44.5714 12C44.5714 9.15971 42.2689 6.85718 39.4286 6.85718C36.5882 6.85718 34.2857 9.15971 34.2857 12C34.2857 14.8404 36.5882 17.1429 39.4286 17.1429Z" fill="white"/>
<path d="M42.8704 17.1428H39.4286H35.9867C33.1425 17.1428 30.8616 19.4535 30.8571 22.2857H48C47.9956 19.4535 45.7146 17.1428 42.8704 17.1428Z" fill="white"/>
<path d="M42.8571 48H15.4286C12.5882 48 10.2857 45.6975 10.2857 42.8572L48 42.8572C48 45.6975 45.6975 48 42.8571 48Z" fill="white"/>
<path d="M41.1429 24H17.1429C15.2493 24 13.7143 25.5349 13.7143 27.4286V41.1429H44.5714V27.4286C44.5714 25.5349 43.0364 24 41.1429 24ZM25.4063 36.1992C25.7695 36.5022 25.8181 37.043 25.5159 37.4062C25.346 37.6088 25.1024 37.7143 24.8563 37.7143C24.6629 37.7143 24.4688 37.649 24.308 37.5151L19.1652 33.2294C18.9701 33.067 18.8571 32.8259 18.8571 32.5714C18.8571 32.317 18.9701 32.0759 19.1652 31.9135L24.308 27.6278C24.6738 27.3231 25.2137 27.3733 25.5159 27.7366C25.8181 28.0999 25.7695 28.6406 25.4063 28.9436L21.0536 32.5714L25.4063 36.1992ZM29.1264 37.0246C29.0444 37.433 28.6878 37.7143 28.2877 37.7143C28.2308 37.7143 28.1739 37.7093 28.1186 37.6975C27.6532 37.6055 27.3519 37.1535 27.4456 36.6897L29.1599 28.1183C29.2537 27.6512 29.7274 27.3499 30.1677 27.4453C30.6331 27.5374 30.9345 27.9894 30.8407 28.4531L29.1264 37.0246ZM39.1204 33.2298L33.9776 37.5155C33.8169 37.6494 33.6227 37.7147 33.4293 37.7147C33.1832 37.7147 32.9396 37.6092 32.7697 37.4067C32.4675 37.0434 32.5161 36.5027 32.8794 36.1996L37.232 32.5718L32.8794 28.9441C32.5161 28.641 32.4675 28.1003 32.7697 27.737C33.0719 27.3737 33.6118 27.3235 33.9776 27.6282L39.1204 31.9139C39.3155 32.0763 39.4285 32.3174 39.4285 32.5718C39.4285 32.8263 39.3155 33.0674 39.1204 33.2298Z" fill="white"/>
<path d="M9.08571 0H20.0571L18.8571 3.42857H10.2857L9.08571 0Z" fill="white"/>
<path d="M27.4286 0H22.2857L20.9621 3.97067C20.7288 4.67065 20.0737 5.14286 19.3358 5.14286H9.80702C9.06916 5.14286 8.41406 4.67065 8.18073 3.97067L6.85714 0H1.71429C0.767474 0 0 0.767473 0 1.71429V37.7143C0 38.6611 0.767474 39.4286 1.71429 39.4286H12V27.4286C12 24.5926 14.3069 22.2857 17.1429 22.2857H29.1429V1.71429C29.1429 0.767473 28.3754 0 27.4286 0ZM10.0346 30.606L6.60603 34.0346C6.43862 34.202 6.21931 34.2857 6 34.2857C5.78069 34.2857 5.56138 34.202 5.39397 34.0346L3.67969 32.3203C3.34487 31.9855 3.34487 31.4431 3.67969 31.1083C4.01451 30.7734 4.55692 30.7734 4.89174 31.1083L6 32.2165L8.82255 29.394C9.15737 29.0592 9.69978 29.0592 10.0346 29.394C10.3694 29.7288 10.3694 30.2712 10.0346 30.606ZM10.0346 20.3203L6.60603 23.7489C6.43862 23.9163 6.21931 24 6 24C5.78069 24 5.56138 23.9163 5.39397 23.7489L3.67969 22.0346C3.34487 21.6998 3.34487 21.1574 3.67969 20.8225C4.01451 20.4877 4.55692 20.4877 4.89174 20.8225L6 21.9308L8.82255 19.1083C9.15737 18.7734 9.69978 18.7734 10.0346 19.1083C10.3694 19.4431 10.3694 19.9855 10.0346 20.3203ZM10.0346 10.0346L6.60603 13.4632C6.43862 13.6306 6.21931 13.7143 6 13.7143C5.78069 13.7143 5.56138 13.6306 5.39397 13.4632L3.67969 11.7489C3.34487 11.4141 3.34487 10.8717 3.67969 10.5368C4.01451 10.202 4.55692 10.202 4.89174 10.5368L6 11.6451L8.82255 8.82254C9.15737 8.48772 9.69978 8.48772 10.0346 8.82254C10.3694 9.15737 10.3694 9.69978 10.0346 10.0346Z" fill="white"/>
</g>
<defs>
<clipPath id="clip0_3_3385">
<rect width="48" height="48" fill="white"/>
</clipPath>
</defs>
</svg>
