<svg width="43" height="37" viewBox="0 0 43 37" fill="none" xmlns="http://www.w3.org/2000/svg">
<path d="M39.2565 0.75708H3.01973C2.21885 0.75708 1.45077 1.07523 0.884459 1.64154C0.318149 2.20785 0 2.97593 0 3.77681V33.9741C0 34.775 0.318149 35.5431 0.884459 36.1094C1.45077 36.6757 2.21885 36.9939 3.01973 36.9939H24.1579C24.5583 36.9939 24.9423 36.8348 25.2255 36.5516C25.5086 36.2685 25.6677 35.8844 25.6677 35.484C25.6677 35.0835 25.5086 34.6995 25.2255 34.4164C24.9423 34.1332 24.5583 33.9741 24.1579 33.9741H3.01973V3.77681H14.4796L20.0661 9.37841C20.2072 9.51835 20.3745 9.62906 20.5585 9.7042C20.7424 9.77934 20.9394 9.81742 21.1381 9.81627H39.2565V18.8755C39.2565 19.2759 39.4156 19.66 39.6987 19.9431C39.9819 20.2263 40.3659 20.3853 40.7664 20.3853C41.1668 20.3853 41.5509 20.2263 41.834 19.9431C42.1172 19.66 42.2762 19.2759 42.2762 18.8755V3.77681C42.2762 2.97593 41.9581 2.20785 41.3918 1.64154C40.8255 1.07523 40.0574 0.75708 39.2565 0.75708ZM21.7572 6.79654L18.7374 3.77681H39.2565V6.79654H21.7572Z" fill="white"/>
<path d="M7.54933 9.81624C7.94977 9.81624 8.33381 9.65717 8.61697 9.37401C8.90012 9.09086 9.0592 8.70682 9.0592 8.30637C9.0592 7.90593 8.90012 7.52189 8.61697 7.23874C8.33381 6.95558 7.94977 6.79651 7.54933 6.79651C7.14889 6.79651 6.76485 6.95558 6.4817 7.23874C6.19854 7.52189 6.03947 7.90593 6.03947 8.30637C6.03947 8.70682 6.19854 9.09086 6.4817 9.37401C6.76485 9.65717 7.14889 9.81624 7.54933 9.81624Z" fill="white"/>
<path d="M13.5888 6.79651C13.2902 6.79651 12.9983 6.88506 12.75 7.05097C12.5017 7.21687 12.3081 7.45268 12.1939 7.72857C12.0796 8.00447 12.0497 8.30805 12.1079 8.60093C12.1662 8.89382 12.31 9.16285 12.5212 9.37401C12.7323 9.58517 13.0013 9.72897 13.2942 9.78723C13.5871 9.84549 13.8907 9.81559 14.1666 9.70131C14.4425 9.58703 14.6783 9.39351 14.8442 9.14521C15.0101 8.89692 15.0987 8.605 15.0987 8.30637C15.0987 7.90593 14.9396 7.52189 14.6564 7.23874C14.3733 6.95558 13.9892 6.79651 13.5888 6.79651Z" fill="white"/>
<path d="M22.648 21.8952C22.648 21.4948 22.4889 21.1108 22.2058 20.8276C21.9226 20.5444 21.5386 20.3854 21.1381 20.3854H16.6085C16.2081 20.3854 15.824 20.5444 15.5409 20.8276C15.2577 21.1108 15.0987 21.4948 15.0987 21.8952C15.0987 22.2957 15.2577 22.6797 15.5409 22.9629C15.824 23.246 16.2081 23.4051 16.6085 23.4051H21.1381C21.5386 23.4051 21.9226 23.246 22.2058 22.9629C22.4889 22.6797 22.648 22.2957 22.648 21.8952Z" fill="white"/>
<path d="M27.1776 15.8557C27.1776 15.4552 27.0185 15.0712 26.7354 14.7881C26.4522 14.5049 26.0682 14.3458 25.6677 14.3458H24.1579C23.7574 14.3458 23.3734 14.5049 23.0902 14.7881C22.8071 15.0712 22.648 15.4552 22.648 15.8557C22.648 16.2561 22.8071 16.6402 23.0902 16.9233C23.3734 17.2065 23.7574 17.3656 24.1579 17.3656H25.6677C26.0682 17.3656 26.4522 17.2065 26.7354 16.9233C27.0185 16.6402 27.1776 16.2561 27.1776 15.8557Z" fill="white"/>
<path d="M16.6085 17.3656H18.1184C18.5188 17.3656 18.9029 17.2065 19.186 16.9233C19.4692 16.6402 19.6283 16.2561 19.6283 15.8557C19.6283 15.4552 19.4692 15.0712 19.186 14.7881C18.9029 14.5049 18.5188 14.3458 18.1184 14.3458H16.6085C16.2081 14.3458 15.824 14.5049 15.5409 14.7881C15.2577 15.0712 15.0987 15.4552 15.0987 15.8557C15.0987 16.2561 15.2577 16.6402 15.5409 16.9233C15.824 17.2065 16.2081 17.3656 16.6085 17.3656Z" fill="white"/>
<path d="M38.0033 30.5769C39.0333 29.0157 39.4471 27.1279 39.1645 25.279C38.882 23.4302 37.9232 21.752 36.474 20.5698C35.0248 19.3875 33.1883 18.7853 31.3204 18.8798C29.4525 18.9743 27.6862 19.7588 26.3637 21.0813C25.0412 22.4038 24.2567 24.1701 24.1622 26.038C24.0677 27.9059 24.6699 29.7424 25.8522 31.1916C27.0344 32.6408 28.7126 33.5996 30.5614 33.8821C32.4102 34.1647 34.2981 33.7509 35.8593 32.7209L39.6943 36.556C39.9787 36.8403 40.3643 37 40.7663 37C41.1684 37 41.554 36.8403 41.8383 36.556C42.1227 36.2716 42.2824 35.886 42.2824 35.4839C42.2824 35.0819 42.1227 34.6963 41.8383 34.4119L38.0033 30.5769ZM27.1776 26.4248C27.1776 25.5289 27.4432 24.6531 27.9409 23.9082C28.4386 23.1634 29.1461 22.5828 29.9737 22.24C30.8014 21.8971 31.7122 21.8074 32.5908 21.9822C33.4695 22.157 34.2766 22.5884 34.9101 23.2218C35.5435 23.8553 35.9749 24.6624 36.1497 25.5411C36.3245 26.4197 36.2348 27.3305 35.892 28.1582C35.5491 28.9858 34.9685 29.6933 34.2237 30.191C33.4788 30.6887 32.603 30.9544 31.7071 30.9544C30.5058 30.9544 29.3537 30.4771 28.5042 29.6277C27.6548 28.7782 27.1776 27.6261 27.1776 26.4248Z" fill="white"/>
<path d="M16.6085 26.4248C16.2081 26.4248 15.824 26.5839 15.5409 26.867C15.2577 27.1502 15.0987 27.5342 15.0987 27.9347C15.0987 28.3351 15.2577 28.7192 15.5409 29.0023C15.824 29.2855 16.2081 29.4445 16.6085 29.4445H18.1184C18.5188 29.4445 18.9029 29.2855 19.186 29.0023C19.4692 28.7192 19.6283 28.3351 19.6283 27.9347C19.6283 27.5342 19.4692 27.1502 19.186 26.867C18.9029 26.5839 18.5188 26.4248 18.1184 26.4248H16.6085Z" fill="white"/>
<path d="M12.0789 14.3459C12.0789 13.9455 11.9199 13.5614 11.6367 13.2783C11.3535 12.9951 10.9695 12.8361 10.5691 12.8361C9.76818 12.8361 9.0001 13.1542 8.43379 13.7205C7.86748 14.2868 7.54933 15.0549 7.54933 15.8558V17.3657C7.14889 17.3657 6.76485 17.5247 6.4817 17.8079C6.19854 18.091 6.03947 18.4751 6.03947 18.8755C6.03947 19.276 6.19854 19.66 6.4817 19.9432C6.76485 20.2263 7.14889 20.3854 7.54933 20.3854V21.8953C7.54933 22.6961 7.86748 23.4642 8.43379 24.0305C9.0001 24.5968 9.76818 24.915 10.5691 24.915C10.9695 24.915 11.3535 24.7559 11.6367 24.4728C11.9199 24.1896 12.0789 23.8056 12.0789 23.4051C12.0789 23.0047 11.9199 22.6206 11.6367 22.3375C11.3535 22.0543 10.9695 21.8953 10.5691 21.8953V20.3854C10.5635 19.8537 10.4177 19.3328 10.1463 18.8755C10.4177 18.4182 10.5635 17.8974 10.5691 17.3657V15.8558C10.9695 15.8558 11.3535 15.6967 11.6367 15.4136C11.9199 15.1304 12.0789 14.7464 12.0789 14.3459Z" fill="white"/>
</svg>
